<svg width="101" height="24" viewBox="0 0 101 24" fill="none" xmlns="http://www.w3.org/2000/svg">
<g clip-path="url(#clip0)">
<path d="M97.0983 9.10811C95.6829 9.10811 94.2675 9.75676 93.0094 10.6216L92.7735 9.83784L92.721 9.67568C92.6948 9.56757 92.59 9.48649 92.4589 9.48649H85.7488C85.6178 9.48649 85.5391 9.56757 85.5391 9.67568C85.5391 9.97297 86.8235 10.9459 86.4041 11.973L85.2508 14.7838C84.4382 16.6486 81.3715 20.1892 76.9156 20.1892C74.3468 20.1892 73.3508 19.027 73.3508 17.4324C73.3508 17.4054 73.3508 17.3514 73.3508 17.2973C76.7321 19.6486 82.5248 17.2162 82.5248 13.3243C82.5248 10.8919 80.4279 8.83784 76.8631 8.83784C72.381 8.83784 69.157 11.5676 67.8464 14.9189C66.8504 17.6216 65.2515 19.6216 63.8885 19.6216C63.2594 19.6216 62.6828 19.0541 63.2332 17.7297C64.7535 14.1081 69.2356 3.2973 69.2618 3.21622C69.9433 1.56757 70.4151 0.486486 70.4151 0.486486C70.52 0.243243 70.4414 0 70.1006 0H62.8925H62.4731C62.3158 0 62.1848 0.108108 62.1848 0.243243C62.1848 0.567568 63.3643 1.54054 63.3643 2.62162C63.3643 2.86487 63.3381 2.91892 63.076 3.56757C63.076 3.56757 59.8257 11.4054 58.4627 14.7027C57.7026 16.4865 55.0815 19.5135 54.033 19.5135C53.5874 19.5135 53.2991 19.2162 53.2991 18.7838C53.2991 17.6486 56.0775 14.3784 56.0775 12.1622C56.0775 9.97297 54.5572 9.08108 52.4079 9.08108C50.5993 9.08108 48.8956 9.72973 47.6112 10.5946L47.3491 9.62162C47.3229 9.51351 47.2181 9.43243 47.087 9.43243H40.3769C40.2458 9.43243 40.1672 9.51351 40.1672 9.62162C40.1672 9.91892 41.4516 10.8919 41.0322 11.9189L39.8789 14.6757C39.3022 16.027 36.2355 19.5946 35.1346 19.5946C33.9551 19.5946 34.0075 18.4324 34.4269 17.4865C34.9249 16.3243 36.7859 12.4595 37.3102 11.2703C37.6509 10.6216 37.9916 10.1081 38.2013 9.83784C38.3586 9.62162 38.3062 9.43243 38.1489 9.43243H32.33C32.2514 9.43243 32.1727 9.45946 32.1203 9.54054L31.2553 10.5946C31.2029 10.5405 29.8923 9.08108 27.1139 9.08108C19.1719 9.08108 14.4538 23.9459 21.793 23.9459C23.9161 23.9459 25.9082 22.7297 27.7168 20.4865C27.6644 22.5405 28.6604 23.9459 30.8097 23.9459C34.2958 23.9459 37.2315 20.6757 37.7557 19.8108L36.3403 23.2432C36.3141 23.3243 36.3141 23.4324 36.3665 23.4865C36.419 23.5676 36.4976 23.5946 36.5762 23.5946H42.0544C42.1593 23.5946 42.2641 23.5405 42.2903 23.4324L45.593 15.4865C46.2482 13.9189 47.1132 12.1081 48.4238 12.1081C49.0529 12.1081 49.446 12.5676 49.446 13.2162C49.446 14.8919 46.6938 18.0811 46.6938 20.8108C46.6938 22.5946 47.8471 23.9459 50.2324 23.9459C53.1156 23.9459 55.6581 21.5946 56.5755 20.2703C56.6279 22.2162 57.9123 23.973 60.7169 23.973C63.6002 23.973 66.2737 21.7027 67.3746 19.7027C67.9513 22.5405 70.2579 23.9459 73.8488 23.9459C77.7019 23.9459 80.7948 22.1622 83.0228 20.0811L82.9704 20.1892L81.8433 22.8649L81.7122 23.1892C81.686 23.2703 81.686 23.3784 81.7385 23.4324C81.7909 23.5135 81.8695 23.5405 81.9482 23.5405H87.4263C87.5312 23.5405 87.636 23.4865 87.6622 23.3784L90.729 15.973C91.6988 13.6216 92.4851 11.8919 93.7433 11.8919C95.1587 11.8919 94.6607 13.973 94.084 15.3784L94.0054 15.5946C93.9792 15.6757 93.9792 15.7838 94.0316 15.8378C94.084 15.9189 94.1627 15.9459 94.2413 15.9459H99.7195C99.8243 15.9459 99.903 15.8919 99.9554 15.7838C101.423 12.6487 101.266 9.10811 97.0983 9.10811ZM77.2563 11.7568C79.4319 11.7568 78.6717 15.6487 75.2643 15.6487C75.0021 15.6487 74.3731 15.5676 73.7702 15.2432C74.3206 13.5405 75.5788 11.7568 77.2563 11.7568ZM29.8923 13.9189L29.237 15.4865C28.4507 17.3514 26.8256 19.6216 25.4626 19.6216C22.789 19.6216 25.7771 12.027 28.8439 12.027C29.8661 12.027 30.2593 13.027 29.8923 13.9189ZM19.6175 9.83784L17.9399 13.8919C17.8875 14 17.8089 14.0541 17.704 14.0541H10.8366L6.87872 23.5405C6.8263 23.6486 6.74766 23.7027 6.64282 23.7027H0.50935C0.430716 23.7027 0.352082 23.6487 0.299659 23.5946C0.247237 23.5135 0.221025 23.4054 0.273448 23.3243L8.18929 4.27027C8.60867 2.51351 6.48555 0.891892 6.48555 0.378378C6.48555 0.162162 6.64282 0 6.8263 0C6.8263 0 10.2076 0 13.7723 0H34.3221C34.4007 0 34.4793 0.0540541 34.5317 0.108108C34.5842 0.189189 34.5842 0.27027 34.558 0.351351L32.8804 4.40541C32.828 4.51351 32.7494 4.56757 32.6445 4.56757H14.9518C14.847 4.56757 14.7421 4.62162 14.7159 4.72973L12.7501 9.45946H19.3816C19.4602 9.45946 19.5388 9.51351 19.5912 9.56757C19.6437 9.67568 19.6437 9.75676 19.6175 9.83784Z" fill="black"/>
</g>
<defs>
<clipPath id="clip0">
<rect width="100.547" height="24" fill="white" transform="translate(0.247314)"/>
</clipPath>
</defs>
</svg>
